# xmcd
#
# Track frame offsets: 
#        150
#        17508
#        36863
#        55401
#        71126
#        98255
#        116845
#        132001
#        150019
#        167691
#        181831
#        200365
#        215375
#        235507
#        273883
#        293593
#
# Disc length: 4187 seconds
#
# Revision: 0
# Processed by: cddbd v1.5PL3 Copyright (c) Steve Scherf et al.
# Submitted via: ExactAudioCopy v0.95a3
#
DISCID=c8105910
DTITLE=Brian Burns - Heavy Weather
DYEAR=2004
DGENRE=
TTITLE0=Heavy Weather
TTITLE1=The Rain Before A Hurricane
TTITLE2=Hurricane Casey
TTITLE3=Fisherman's Blues
TTITLE4=Indianola
TTITLE5=The Train Wreck At Kiowa Creek
TTITLE6=Nothin' To Say (Austin Vs Nashville)
TTITLE7=Madison
TTITLE8=Broke Down In Tulsa
TTITLE9=Storm On The Ring Of Kerry(instr)
TTITLE10=Frink The Drivin' Rain
TTITLE11=Thunderstorms and Tyler Roses
TTITLE12=Scream
TTITLE13=Wreck Of The Edmund Fitzgerald
TTITLE14=The Mistress Of Storms
TTITLE15=Hidden Track
EXTD=
EXTT0=
EXTT1=
EXTT2=
EXTT3=
EXTT4=
EXTT5=
EXTT6=
EXTT7=
EXTT8=
EXTT9=
EXTT10=
EXTT11=
EXTT12=
EXTT13=
EXTT14=
EXTT15=
PLAYORDER=
